<?xml version="1.0" encoding="utf-8"?>
<!-- Generator: Adobe Illustrator 23.0.3, SVG Export Plug-In . SVG Version: 6.00 Build 0)  -->
<svg version="1.1" id="mooreBandLogo" xmlns="http://www.w3.org/2000/svg" xmlns:xlink="http://www.w3.org/1999/xlink" x="0px" y="0px"
	 viewBox="0 0 720 452" style="enable-background:new 0 0 720 452;" xml:space="preserve">
<g id="mooreBand">
	<polyline class="st0" points="270,308 331,198.5 351,291.9 423,189 414,279 504,261 504,198.2 476,203.8 486,0 380,169 361,17 
		234,252.2 216,255.8 216,319 	"/>
	<polyline class="st0" points="0,452 720,308 720,245 0,389 	"/>
	<path class="st1" d="M215.6,257.5"/>
	<path class="st1" d="M503.6,199.9"/>
	<path class="st1" d="M500.3,191.8"/>
	<path class="st1" d="M536.3,184.6"/>
	<polyline class="st0" points="540,254 720,218 720,155 540,191 	"/>
	<path class="st1" d="M540,254"/>
	<path class="st1" d="M504,261.2"/>
	<path class="st1" d="M500.8,261.7"/>
	<path class="st1" d="M212.8,319.4"/>
	<path class="st1" d="M216,318.8"/>
	<path class="st1" d="M180,326"/>
	<polyline class="st0" points="180,263 0,299 0,362 180,326 	"/>
	<path class="st1" d="M180,263"/>
	<path class="st1" d="M216,255.8"/>
</g>
</svg>
